<svg xmlns="http://www.w3.org/2000/svg" data-name="Capa 2" viewBox="0 0 50 50" fill="currentColor" with="50" height="50"><path d="M25 0C11.19 0 0 11.19 0 25s11.19 25 25 25 25-11.19 25-25S38.81 0 25 0ZM11.84 9.13c.39-.32.77-.53 1.07-.66.21-.07.53-.14.92-.13.33 0 .6.07.8.13a52.33 52.33 0 0 1 8.26 3.45c-.18-.71-.37-1.42-.55-2.13.31.18.68.44 1.06.8.5.47.84.95 1.06 1.33.1-.19.19-.41.27-.66.19-.64.18-1.21.13-1.59.32.28.71.68 1.06 1.2.23.33.4.65.53.93l9.03-4.65a2.547 2.547 0 0 1 1.6 0c.46.41.96.89 1.46 1.46.53.61.97 1.19 1.33 1.73l-12.62 6.91-2.39-2.86v1.27l-2.97 2.19-11.11-7.51c.21-.33.55-.78 1.06-1.2Zm23.38 5.05-1.86 3.06-3.59-.13 3.45-.93 1.99-1.99Zm-1.78 10.84c.46 1.29.49 2.42.45 3.11-.31-.28-.63-.5-.93-.66-2.83-1.55-6.36.29-7.05.66v-3.18l3.2-2.54c-.19-.42-.4-.87-.66-1.33-.43-.77-.89-1.44-1.33-1.99 1.04.28 2.46.78 3.99 1.73 1.37.85 2.37 1.78 3.06 2.52l-2.13-.8c.42.5 1 1.33 1.41 2.47Zm-5.52-2.87c-.35-.31-.71-.62-1.06-.93-.17-.12-.39-.12-.53 0-.11.09-.16.25-.13.4v1.33a1.949 1.949 0 0 0 .93-.13c-.26.6-.85.97-1.46.93-.78-.05-1.17-.75-1.2-.8.13 0 .27.01.4.02v-2.01c-.2.19-.44.45-.66.8-.18.29-.31.56-.4.78l-.53-.65c.26-1.17 1.36-1.97 2.52-1.86 1.1.1 2 .99 2.13 2.13Zm-9.43.8a9.397 9.397 0 0 1 5.31-3.73c-.31.5-.62 1.04-.93 1.61-.19.36-.37.71-.53 1.06l2.99 2.98v3.46l-9.1 3.37c.1-1.26.41-3.2 1.41-5.36 1.06-2.27 2.44-3.82 3.37-4.72l-2.52 1.33Zm5.31-2.52c1.73-3.06 2.92-.8 2.92-.8-1.33-1.06-2.92.8-2.92.8Zm-4.12-2.59-3.98-.07-1.99-3.45 2.39 2.39 3.58 1.13Zm-7.17 5.72c.04.6.09 1.19.13 1.79-.31-.51-.64-1.13-.93-1.86-.32-.78-.53-1.51-.66-2.13-.22.58-.44 1.15-.66 1.73-.23-1.44-.39-3.41-.13-5.71.23-2.06.72-3.77 1.2-5.05.36.96.8 1.98 1.33 3.06.61 1.24 1.24 2.35 1.86 3.32-.4.27-.8.53-1.2.8 1.06-.16 2.17-.29 3.32-.4 1.98-.18 3.84-.26 5.58-.27-1.18.11-2.71.39-4.38 1.06-.87.35-1.62.74-2.26 1.13.77-.26 1.61-.51 2.52-.73.99-.24 1.93-.41 2.79-.53a21.46 21.46 0 0 0-3.45 2.66c-1.13 1.08-2 2.14-2.66 3.06-.36-.15-.83-.4-1.33-.8-.49-.4-.84-.81-1.06-1.12Zm21.65 7.9c-.35.31-.7.46-.93.53-.1-.18-.37-.63-.93-.93-.51-.27-.99-.28-1.2-.27-.42.04-.92.11-1.46.27-.89.25-1.59.61-2.09.93.41-.11.89-.21 1.42-.27.77-.08 1.45-.06 1.99 0 .34.07.75.19 1.2.4.37.17.68.36.93.53a28.51 28.51 0 0 1-1.99 4.78 28.926 28.926 0 0 1-3.85 5.58c.11-.31.21-.72.27-1.2.05-.47.03-.88 0-1.2-.22.28-.52.61-.93.93-.46.37-.91.61-1.26.76l.27-2.27-3.12.18c-.36.08-.98.16-1.73 0-.59-.12-1.04-.35-1.33-.53l-2.66-4.12c.71-.35 1.42-.71 2.13-1.06a5.93 5.93 0 0 0-3.45 1.33c-.46-.44-.91-.89-1.37-1.33-.03-.06-.14-.26-.09-.53.07-.35.36-.51.4-.53 3.14-1.13 6.29-2.25 9.43-3.38a21.426 21.426 0 0 1 5.59-1.94c.5-.09 1.13-.16 1.85-.13.9.03 1.65.2 2.2.37.29.22.65.53.98.96.23.28.4.56.53.8-.06.25-.25.84-.8 1.33Zm5.58-12.49c-.18-.71-.35-1.42-.53-2.13-.01.51-.12 1.95-1.2 3.19-.45.52-.95.86-1.33 1.06a6.746 6.746 0 0 0-3.86-1.33l1.73 1.73-7.57-3.19c1.27-.1 2.64-.16 4.12-.13.95.02 1.85.06 2.7.13.69-.74 1.48-1.71 2.21-2.92.51-.86.9-1.67 1.2-2.39v-.33l2.13-1.13c.25 1.06.46 2.36.53 3.85.06 1.36 0 2.57-.13 3.59Z" data-name="Capa 1"/></svg>