<svg xmlns="http://www.w3.org/2000/svg" data-name="Capa 2" viewBox="0 0 115 32" fill="currentColor" witn="115" height="32"><path d="M111.88 8.6H109c-.9 0-1.72.38-2.29 1-.58-.63-1.41-1-2.29-1h-3.07c-.1 0-.2 0-.3.02-.1 0-.2-.02-.3-.02h-2.77c-.57 0-1.12.16-1.6.44-.47-.28-1.02-.44-1.6-.44h-2.83c-.3 0-.59.04-.87.12-.28-.08-.57-.12-.86-.12H86.7c-.08 0-.15 0-.23.01-.08 0-.15-.01-.23-.01h-1.15c-.13 0-.26.01-.39.03-.04-.65-.12-1.3-.23-1.94.07-.15.12-.31.16-.48.21-.84.05-1.74-.44-2.46-.37-.55-.77-1.07-1.21-1.56-.41-.47-.86-.91-1.33-1.32-.31-.27-.67-.48-1.05-.61a4.984 4.984 0 0 0-3.17 0c-.14.05-.28.11-.42.18l-4.25 2.17a3.11 3.11 0 0 0-1.99-.71c-.36 0-.72.06-1.07.19a3.155 3.155 0 0 0-2.19.26l-.05-.02c-1.02-.42-2.06-.8-3.12-1.14a5.12 5.12 0 0 0-1.45-.24h-.11c-.53 0-1.06.08-1.56.24-.12.04-.23.08-.35.13-.52.23-1.01.53-1.45.89-.56.45-1.04.99-1.43 1.6-.6.95-.63 2.1-.16 3.04-.18.58-.32 1.16-.44 1.75H55.9c-.49 0-.96.12-1.37.32-.42-.21-.89-.32-1.38-.32H50.1c-.23 0-.45.03-.67.07-.22-.05-.44-.07-.67-.07h-4.51c-.08 0-.15 0-.23.01-.08 0-.15-.01-.23-.01h-2.88c-.56 0-1.08.15-1.53.4-.46-.26-.99-.4-1.53-.4h-3.3c-.08 0-.15 0-.23.01-.08 0-.15-.01-.23-.01h-2.88c-1.32 0-2.44.81-2.9 1.96a3.116 3.116 0 0 0-2.9-1.96h-2.88c-.56 0-1.09.15-1.54.41-.47-.26-.99-.41-1.54-.41h-2.24c-.08 0-.15 0-.23.01-.08 0-.15-.01-.23-.01h-2.22c-.82 0-1.6.32-2.19.89l-.1.1c-.59-.63-1.41-.99-2.28-.99H6.44c-.08 0-.15 0-.23.01-.08 0-.15-.01-.23-.01H4.83c-.83 0-1.62.33-2.2.91L.9 11.23c-.58.58-.91 1.37-.91 2.19v5.17c0 .82.33 1.61.91 2.19l1.73 1.72c.58.58 1.38.91 2.2.91h3.63c.08 0 .15 0 .23-.01.08 0 .15.01.23.01h2.56c.56 0 1.08-.15 1.53-.4.46.26.99.4 1.53.4h2.22c.08 0 .15 0 .23-.01.08 0 .15.01.23.01h2.24c.54 0 1.07-.14 1.54-.41.45.26.98.41 1.54.41h2.88c.08 0 .15 0 .23-.01.08 0 .15.01.23.01h4.05c.22 0 .44-.02.65-.07.21.04.42.07.65.07h2.88c.08 0 .15 0 .23-.01.08 0 .15.01.23.01h3.3c.54 0 1.07-.14 1.53-.4.45.25.97.4 1.53.4h2.88c.08 0 .15 0 .23-.01.08 0 .15.01.23.01h4.51c.23 0 .45-.03.67-.07.22.05.44.07.67.07h2.51c.49 0 .95-.12 1.36-.32.42.2.89.32 1.37.32h3.07c.5 0 .99-.12 1.42-.34.07.45.21.89.44 1.29.15.25.33.49.54.69l.99.95c.43.41.95.68 1.51.8l.92 1.41c.25.39.59.72.98.96.6.37 1.26.63 1.95.77.42.09.84.13 1.27.13h.06c.2.32.46.6.78.83.45.33.97.53 1.51.59.05.04.11.07.16.1a3.117 3.117 0 0 0 3.9-.63c1.25-1.4 2.32-2.95 3.2-4.6.57-1.08 1.06-2.21 1.46-3.37.02-.02.04-.03.06-.05.69-.62 1.2-1.41 1.46-2.3.04.05.08.1.13.14l1.73 1.72c.58.58 1.38.91 2.2.91h3.63c.08 0 .15 0 .23-.01.08 0 .15.01.23.01h2.56c.58 0 1.11-.16 1.58-.43.46.27 1 .43 1.58.43h2.89c.66 0 1.28-.21 1.78-.56.51.35 1.12.56 1.78.56h2.69c.44 0 .85-.09 1.23-.25.38.16.79.25 1.22.25h.01c.43 0 .85-.09 1.24-.26.38.17.81.26 1.25.26h2.88c1.72 0 3.12-1.39 3.12-3.1v-8.6c0-1.71-1.4-3.1-3.12-3.1ZM8.47 20.3H4.84l-1.73-1.72v-5.17l1.73-1.72h1.15v6.88h2.47v1.72Zm3.01 0H8.92v-3.07h-1.4v-1.7h3.96v4.77Zm0-6.02H8.6v-.86H6.45V11.7h3.52l1.51 1.72v.86Zm5.28-.84h-1.08v5.11h1.08v1.75h-2.22l-1.76-1.72v-5.17l1.76-1.72h2.22v1.74Zm4.44 5.14-1.75 1.72h-2.24v-1.75h1.1v-5.11h-1.1V11.7h2.24l1.75 1.72v5.17Zm4.22 1.72h-2.88v-8.6h2.88v8.6Zm4.5 0h-4.05v-1.72h1.43v-1.09h2.62v2.81Zm4.18 0h-2.88v-8.6h2.88v8.6Zm5.49-1.72-1.74 1.72h-3.3v-1.72h2.14v-5.17h-2.14v-1.72h3.3l1.74 1.72v5.17Zm4.21-1.82v3.53h-2.88v-8.6h2.88v3.41h2.76v1.66H43.8Zm4.97 3.53h-4.51v-1.72h1.62v-.86h2.88v2.58Zm0-6.11h-2.71v-.82h-1.79v-1.67h4.51v2.49Zm3.85 6.11h-2.51V12.5l2.51 4.09v3.69Zm2.73 0-5.25-8.6h3.05l5.27 8.6h-3.07Zm3.07-.82-2.51-4.11v-3.68h2.51v7.79ZM61.4 4.61c.28-.23.56-.38.77-.48.15-.05.38-.1.66-.1.24 0 .44.05.58.1.91.29 1.87.63 2.88 1.05 1.13.46 2.15.95 3.08 1.43-.13-.51-.26-1.02-.4-1.52.23.13.49.32.77.57.36.34.61.68.77.95.07-.13.14-.29.19-.48.14-.46.13-.87.1-1.14a4.519 4.519 0 0 1 1.15 1.53l6.51-3.33c.13-.04.33-.1.58-.1.25 0 .45.05.58.1.33.29.69.64 1.05 1.05.39.43.7.86.96 1.24l-9.11 4.95-1.73-2.05v.91l-2.14 1.57-8.02-5.38c.15-.24.39-.56.77-.86Zm16.87 3.62-1.34 2.19-2.59-.1 2.49-.67 1.44-1.43ZM76.98 16c.33.93.35 1.74.33 2.23-.22-.2-.45-.36-.67-.48-2.04-1.11-4.59.21-5.09.48v-2.28l2.31-1.82c-.13-.3-.29-.62-.48-.95-.31-.56-.64-1.03-.96-1.43.75.2 1.78.56 2.88 1.24.99.61 1.71 1.28 2.2 1.81l-1.53-.57c.3.36.72.95 1.01 1.77Zm-3.99-2.06-.77-.67c-.12-.09-.28-.09-.38 0-.08.07-.12.18-.1.29v.95c.08 0 .18.01.29 0 .16-.02.29-.06.38-.1-.19.43-.61.7-1.05.67-.57-.04-.85-.54-.86-.57.1 0 .19 0 .29.01v-1.44c-.14.14-.32.32-.48.57-.13.2-.22.4-.29.56l-.38-.46c.19-.84.98-1.41 1.82-1.33.8.07 1.45.71 1.53 1.52Zm-6.81.57c.33-.48.93-1.2 1.87-1.81.75-.49 1.46-.74 1.96-.87-.22.36-.45.74-.67 1.16-.14.26-.27.51-.38.76l2.16 2.14v2.48l-6.57 2.42c.07-.9.3-2.3 1.02-3.84A11.27 11.27 0 0 1 68 13.57l-1.82.95Zm3.83-1.81c1.25-2.19 2.11-.57 2.11-.57-.96-.76-2.11.57-2.11.57Zm-2.97-1.86-2.87-.05-1.44-2.48 1.73 1.71 2.59.81Zm-5.45 8.55-.06.03v-.13h.07c0 .03 0 .06-.01.09Zm.28-4.45.1 1.28a9.648 9.648 0 0 1-1.15-2.85c-.16.41-.32.83-.48 1.24-.16-1.03-.28-2.44-.1-4.09.17-1.48.52-2.7.86-3.62.26.69.58 1.42.96 2.19.44.89.9 1.68 1.34 2.38-.29.19-.58.38-.86.57.76-.11 1.56-.21 2.4-.29 1.43-.13 2.77-.19 4.03-.19-.85.08-1.96.28-3.16.76-.63.25-1.17.53-1.63.81a20.2 20.2 0 0 1 1.82-.52c.72-.17 1.39-.29 2.01-.38-.73.45-1.6 1.07-2.49 1.9-.82.77-1.45 1.53-1.92 2.19-.26-.11-.6-.29-.96-.57-.36-.28-.6-.58-.77-.81Zm15.62 5.66c-.25.22-.51.33-.67.38-.07-.13-.27-.45-.67-.67-.37-.2-.71-.2-.86-.19a5.677 5.677 0 0 0-2.56.86 6.889 6.889 0 0 1 2.47-.19 4.437 4.437 0 0 1 1.53.67c-.32 1.01-.77 2.18-1.44 3.43-.9 1.7-1.91 3.02-2.78 4 .08-.22.15-.51.19-.86.04-.34.03-.63 0-.86-.16.2-.38.44-.67.67-.33.26-.66.44-.91.55.06-.54.13-1.09.19-1.63l-2.25.13c-.26.05-.71.11-1.25 0-.43-.09-.75-.25-.96-.38-.64-.98-1.28-1.97-1.92-2.95.51-.25 1.02-.51 1.53-.76a4.296 4.296 0 0 0-2.49.96c-.33-.32-.66-.63-.99-.95-.02-.04-.1-.19-.06-.38.05-.25.26-.37.29-.38 2.27-.81 4.54-1.61 6.81-2.42.55-.28 1.19-.56 1.92-.82.77-.27 1.49-.45 2.12-.57.36-.06.81-.11 1.33-.1.65.02 1.19.14 1.59.27.21.16.47.38.71.69.16.2.29.4.38.57-.05.18-.18.6-.58.95Zm4.03-8.95c-.13-.51-.26-1.02-.38-1.52-.01.37-.09 1.4-.86 2.29-.33.38-.68.61-.96.76a4.8 4.8 0 0 0-2.78-.95l1.25 1.24-5.46-2.29c.91-.07 1.91-.11 2.97-.1.68.01 1.33.05 1.95.1.5-.53 1.07-1.22 1.6-2.09.37-.61.65-1.2.86-1.71v-.24l1.53-.81c.18.76.33 1.69.38 2.76.05.97 0 1.84-.1 2.57Zm7.2 8.63h-3.63l-1.73-1.72v-5.17l1.73-1.72h1.15v6.88h2.47v1.72Zm3.01 0h-2.56v-3.07h-1.4v-1.7h3.96v4.77Zm0-6.02h-2.88v-.86H86.7v-1.72h3.52l1.51 1.72v.86Zm6.04 6.02h-2.89v-2.74l-2.94-5.87h2.83l3 6.07v2.53Zm.18-3.14-1.4-2.83 1.42-2.64h2.77l-2.79 5.46Zm6.08 3.14h-2.69v-7.8l2.69 4.49v3.31Zm4.53-3.56-2.08 3.56-5.14-8.6h3.07l2.32 3.82 1.83-3.11v4.33Zm3.31 3.56h-2.88v-8.6h2.88v8.6Z" data-name="Capa 1"/></svg>