<!-- <svg xmlns="http://www.w3.org/2000/svg" id="yt-ringo2-svg_yt13" width="93" height="20" viewBox="0 0 93 20" focusable="false" aria-hidden="true" style="pointer-events: none; display: inherit; width: 100%; height: 100%;">
  <g>
    <path d="M14.4848 20C14.4848 20 23.5695 20 25.8229 19.4C27.0917 19.06 28.0459 18.08 28.3808 16.87C29 14.65 29 9.98 29 9.98C29 9.98 29 5.34 28.3808 3.14C28.0459 1.9 27.0917 0.94 25.8229 0.61C23.5695 0 14.4848 0 14.4848 0C14.4848 0 5.42037 0 3.17711 0.61C1.9286 0.94 0.954148 1.9 0.59888 3.14C0 5.34 0 9.98 0 9.98C0 9.98 0 14.65 0.59888 16.87C0.954148 18.08 1.9286 19.06 3.17711 19.4C5.42037 20 14.4848 20 14.4848 20Z" fill="#FF0033"></path>
    <path d="M19 10L11.5 5.75V14.25L19 10Z" fill="white"></path>
  </g>
</svg> -->

<svg xmlns="http://www.w3.org/2000/svg" white="29" height="20" fill="currentColor" viewBox="0 0 29 20"><path d="M28.38 3.14A3.546 3.546 0 0 0 25.82.61C23.57 0 14.48 0 14.48 0S5.42 0 3.17.61A3.645 3.645 0 0 0 .6 3.14C0 5.34 0 9.98 0 9.98s0 4.67.6 6.89a3.731 3.731 0 0 0 2.58 2.53c2.24.6 11.31.6 11.31.6s9.08 0 11.34-.6a3.632 3.632 0 0 0 2.56-2.53c.62-2.22.62-6.89.62-6.89s0-4.64-.62-6.84ZM11.5 14.25v-8.5L19 10l-7.5 4.25Z"/></svg>